<svg xmlns="http://www.w3.org/2000/svg" viewBox="0 0 150 60"><title>logo_flexblogger</title><path d="M4.07,29.31q-.09-1.7,6.1-3.16l-.73-14-.6-.54v-.18L3.61,14.14l-.23-.31-.66.35L.9,12a.69.69,0,0,1,.22-.47l-.26-.27Q.78,9.7,14.19,4.88A55.05,55.05,0,0,1,27.66,1.33l.07.07.81-.11.45.4,2.07-.53L34.23,1l2.39,2.15.13,2.45-4.28,5.34a.92.92,0,0,1-.69-.25l-.2.29q-1.14.06-1.25-2.21l-1.14.06,0-.57.13-.18h-.14l0-.57,1.39-2.1Q13.69,7.57,13.65,10.2l-.42,2.87.57,11L26.49,21l.11.14.77-.18,1.82,2.18a.64.64,0,0,1-.19.47l.23.27c-.83,1.23-3.9,1.64-11.3,3.22q-4.45,2-4.39,3.07l.08,1.53.69,2.24-.05.39.09.35-.76,5L14,40l.69,14.42-1.08,1.19-2,.11L11,55.2l-.57,0v-.71h0l.13-9.77,0-.39-.66-1.67.08-.47-.12-.28.42-2.87-.39-8L6.25,32.22,6.07,32l-.7.21L4.17,31.19Z" style="fill:#fe5723"/><path d="M31.5,12.71l.71,0,2.2,1.6-.53,4.37,1.18,27.69L36,50.6l-.67.91-2.13.13L31.67,50,30.34,18.86l-.89-4.28Z" style="fill:#fe5723"/><path d="M44.72,30.31q7.12-.73,7.56,1.18l.64,2.77q-1.23,4.66-6.66,5.91l-1.7-1.07q-.06-1.7,4.74-4.74l-.16-.69-4.31.26-5,7q.64,2.77,9.26,2.24l5.75-3.51,1.86,1.76.32,1.38-7.83,4q-11.08,2.55-13-5.76Q40,31.39,44.72,30.31Z" style="fill:#fe5723"/><path d="M104.51,10.62l.67.75-.12,2.13L86.57,26A52.14,52.14,0,0,0,70.25,37.87c2.22,2.64,8.24,10.27,8.17,11.55l-2.21,1.3-.71,0-9-10.17q-4.05,1.87-20.23,18.08l-1.42-.08L43.56,57l0-.71q.09-1.63,20.27-18.79l-4-4.49,0-.71q.09-1.63,3.67-1.93-.12,2.13,4,4.49L95.68,15.82A16,16,0,0,1,104.51,10.62Z" style="fill:#fe5723"/><path d="M87.84,38.35c.23.13.38.22.53.3a3.49,3.49,0,0,1,.39,6,5,5,0,0,1-3,.94c-1.5,0-3,0-4.49,0-.44,0-.56-.14-.56-.57q0-6.43,0-12.87c0-.33,0-.56.46-.56,1.66,0,3.32,0,5,0a3.8,3.8,0,0,1,3.48,2.71A3.1,3.1,0,0,1,88.34,38C88.19,38.08,88.06,38.19,87.84,38.35Zm-5.41,3.22h0c0,.62,0,1.24,0,1.86,0,.39.11.57.53.55,1.16,0,2.33,0,3.49-.07a2.35,2.35,0,0,0,.17-4.67c-1.25-.09-2.51-.05-3.77-.07-.3,0-.43.13-.42.43C82.44,40.26,82.43,40.92,82.43,41.57Zm0-6.18h0c0,.58,0,1.17,0,1.75,0,.38.14.52.51.51.95,0,1.9,0,2.84,0a3.18,3.18,0,0,0,1.06-.23,2.2,2.2,0,0,0,1.26-2.48A2.12,2.12,0,0,0,86,33.2c-1,0-2.08,0-3.12,0-.38,0-.48.12-.47.47C82.45,34.23,82.43,34.81,82.43,35.4Z" style="fill:#757575"/><path d="M114.45,37.43c0-.4,0-.66,0-.92s.15-.49.5-.48c1.29,0,1.05,0,1.06,1,0,2.85,0,5.69,0,8.54a4.39,4.39,0,0,1-3.4,4.35A4.67,4.67,0,0,1,107.29,48c-.1-.15-.17-.32-.29-.55l1.39-.61c1.41,1.82,2.84,2.26,4.5,1.43a3.56,3.56,0,0,0,1.5-4,4.62,4.62,0,0,0-.36.31,4.11,4.11,0,0,1-6,0,5.47,5.47,0,0,1,.4-7.86A4,4,0,0,1,114,37C114.11,37.13,114.23,37.23,114.45,37.43Zm0,3.26c0-.08,0-.27,0-.45a3.15,3.15,0,0,0-2-2.79,3,3,0,0,0-3.29.67,4.12,4.12,0,0,0-.74,4.24,3.06,3.06,0,0,0,4,1.78A3.43,3.43,0,0,0,114.5,40.69Z" style="fill:#757575"/><path d="M118.28,47.43l1.4-.6c1.14,1.71,2.72,2.24,4.35,1.49a3.48,3.48,0,0,0,1.64-4.05,1.36,1.36,0,0,0-.3.2,4.16,4.16,0,0,1-6.83-.94,5.43,5.43,0,0,1,1.17-6.85,4,4,0,0,1,5.58.34c.1.11.22.21.33.31l.15,0a5.9,5.9,0,0,1,0-.84c0-.14.14-.37.25-.38a3.73,3.73,0,0,1,1,0c.11,0,.26.23.26.36,0,.58,0,1.17,0,1.75,0,2.46,0,4.93,0,7.39a4.44,4.44,0,0,1-3.2,4.29A4.69,4.69,0,0,1,118.56,48C118.47,47.82,118.4,47.65,118.28,47.43Zm7.56-6.63a11.5,11.5,0,0,0-.31-1.49,2.87,2.87,0,0,0-2.31-2,2.91,2.91,0,0,0-2.93,1.06,3.94,3.94,0,0,0-.62,3.72,3.05,3.05,0,0,0,4.1,2.07A3.47,3.47,0,0,0,125.84,40.8Z" style="fill:#757575"/><path d="M130.88,41.08a2.93,2.93,0,0,0,1.9,3.06c1.45.57,2.77.12,3.86-1.35.22.08.45.15.68.25s.43.19.69.31a3.6,3.6,0,0,1-1.92,2,4.77,4.77,0,0,1-5.11-.5A4.89,4.89,0,0,1,129.13,41a5,5,0,0,1,3.35-5.08,4.43,4.43,0,0,1,5.72,3.28c.09.41.14.83.2,1.24s-.12.65-.6.64c-2.12,0-4.23,0-6.35,0Zm.1-1.36h5.32c.41,0,.34-.28.27-.54A2.87,2.87,0,0,0,133,37.31,2.72,2.72,0,0,0,131,39.72Z" style="fill:#757575"/><path d="M95.5,40.79a4.87,4.87,0,1,1,9.72,0,4.87,4.87,0,1,1-9.72,0Zm8.08,0c0-.27,0-.51,0-.74a3.09,3.09,0,0,0-2-2.62,3,3,0,0,0-3.18.47,3.9,3.9,0,0,0-.89,4.55,3,3,0,0,0,2.7,1.84A3.23,3.23,0,0,0,103.58,40.84Z" style="fill:#757575"/><path d="M93.72,38.56c0,2.11,0,4.23,0,6.34,0,.51-.12.71-.67.69-1,0-1,0-1-1,0-4,0-8,0-12,0-.31.06-.83.2-.87a3.26,3.26,0,0,1,1.29,0c.08,0,.17.33.17.5C93.73,34.29,93.72,36.42,93.72,38.56Z" style="fill:#757575"/><path d="M141.94,37.61a3.07,3.07,0,0,1,2.38-1.74,5.24,5.24,0,0,1,1.24.05c.3,0,.36.2.25.46l-.06.15c-.37.94-.37.94-1.37.94a2.43,2.43,0,0,0-2.44,2.08c-.13,1.14-.1,2.29-.12,3.44,0,.71,0,1.42,0,2.14,0,.33-.13.44-.46.45-1.18.05-1.18.06-1.18-1.11,0-2.57,0-5.15,0-7.72,0-.54.13-.75.7-.73,1,0,.92,0,.9.89,0,.21,0,.42,0,.63Z" style="fill:#757575"/></svg>